<svg width="80" height="80" viewBox="0 0 80 80" fill="none" xmlns="http://www.w3.org/2000/svg">
<circle cx="40.7879" cy="41.1863" r="38.7879" fill="#060D04"/>
<circle cx="38.7879" cy="38.7879" r="37.9879" fill="#FF7CBC" stroke="#060D04" stroke-width="1.6"/>
<path d="M60.9826 68.1565L61.675 68.878L62.0702 68.4988L61.9634 67.9616L60.9826 68.1565ZM17 68.1565L16.0192 67.9616L15.9124 68.4988L16.3076 68.878L17 68.1565ZM29.4619 58.9412H48.5207V56.9412H29.4619V58.9412ZM60.2902 67.435C54.7615 72.7407 47.2581 76 38.9913 76V78C47.7947 78 55.7889 74.5268 61.675 68.878L60.2902 67.435ZM48.5207 58.9412C54.1992 58.9412 58.9354 62.9855 60.0018 68.3514L61.9634 67.9616C60.7146 61.6779 55.1719 56.9412 48.5207 56.9412V58.9412ZM38.9913 76C30.7245 76 23.2211 72.7407 17.6924 67.435L16.3076 68.878C22.1937 74.5268 30.1879 78 38.9913 78V76ZM29.4619 56.9412C22.8107 56.9412 17.268 61.6779 16.0192 67.9616L17.9808 68.3514C19.0472 62.9855 23.7834 58.9412 29.4619 58.9412V56.9412Z" fill="#060D04"/>
<path d="M48.5207 58H29.4619C23.297 58 18.1576 62.3905 17 68.2153C22.7074 73.6926 30.4562 77.0588 38.9913 77.0588C47.5264 77.0588 55.2752 73.6926 60.9826 68.2153C59.825 62.3905 54.6856 58 48.5207 58Z" fill="#060D04"/>
<path d="M60.9826 68.2153L61.675 68.9368L62.0702 68.5576L61.9634 68.0204L60.9826 68.2153ZM17 68.2153L16.0192 68.0204L15.9124 68.5576L16.3076 68.9368L17 68.2153ZM29.4619 59H48.5207V57H29.4619V59ZM60.2902 67.4938C54.7615 72.7996 47.2581 76.0588 38.9913 76.0588V78.0588C47.7947 78.0588 55.7889 74.5856 61.675 68.9368L60.2902 67.4938ZM48.5207 59C54.1992 59 58.9354 63.0444 60.0018 68.4103L61.9634 68.0204C60.7146 61.7367 55.1719 57 48.5207 57V59ZM38.9913 76.0588C30.7245 76.0588 23.2211 72.7996 17.6924 67.4938L16.3076 68.9368C22.1937 74.5856 30.1879 78.0588 38.9913 78.0588V76.0588ZM29.4619 57C22.8107 57 17.268 61.7367 16.0192 68.0204L17.9808 68.4103C19.0472 63.0444 23.7834 59 29.4619 59V57Z" fill="#060D04"/>
<path d="M16 66C16 58.268 22.268 52 30 52H48C55.732 52 62 58.268 62 66V69H16V66Z" fill="#060D04"/>
<path d="M52.4118 31.7059C52.4118 38.7231 46.7231 44.4118 39.7059 44.4118C32.6886 44.4118 27 38.7231 27 31.7059C27 24.6886 32.6886 19 39.7059 19C46.7231 19 52.4118 24.6886 52.4118 31.7059Z" fill="#060D04" stroke="#060D04" stroke-width="2"/>
</svg>
