<svg width="80" height="80" viewBox="0 0 80 80" fill="none" xmlns="http://www.w3.org/2000/svg">
<circle cx="40.7879" cy="41.1863" r="38.7879" fill="#060D04"/>
<circle cx="38.7879" cy="38.7879" r="37.9879" fill="#FF7CBC" stroke="#060D04" stroke-width="1.6"/>
<path d="M46.8556 26.0885C50.8545 25.3215 54.3654 28.8323 53.5984 32.8313L50.9665 46.5549C50.4769 49.1077 48.5421 51.1545 46.0254 51.8047C40.9984 53.1033 36.4242 48.4391 37.8891 43.4579C38.1876 42.4426 37.2443 41.4992 36.229 41.7978C31.2478 43.2627 26.5837 38.6885 27.8823 33.6615C28.5324 31.1448 30.5792 29.21 33.132 28.7204L46.8556 26.0885Z" fill="#060D04"/>
<path d="M27.8823 33.6615L28.9853 33.9464L27.8823 33.6615ZM33.132 28.7204L33.3466 29.8393L33.132 28.7204ZM36.229 41.7978L35.9076 40.7049L36.229 41.7978ZM37.8891 43.4579L36.7961 43.1365L37.8891 43.4579ZM46.0254 51.8047L46.3104 52.9077L46.0254 51.8047ZM50.9665 46.5549L52.0853 46.7695L50.9665 46.5549ZM53.5984 32.8313L52.4796 32.6167L53.5984 32.8313ZM46.8556 26.0885L46.641 24.9696L46.8556 26.0885ZM29.9977 48.0781C29.5529 48.523 29.5529 49.2443 29.9977 49.6892C30.4426 50.1341 31.164 50.1341 31.6089 49.6892L29.9977 48.0781ZM33.7302 47.5679C34.1751 47.123 34.1751 46.4017 33.7302 45.9568C33.2853 45.5119 32.564 45.5119 32.1191 45.9568L33.7302 47.5679ZM31.0584 53.3814C30.6135 53.8263 30.6135 54.5476 31.0584 54.9925C31.5033 55.4374 32.2246 55.4374 32.6695 54.9925L31.0584 53.3814ZM34.7908 52.8712C35.2357 52.4263 35.2357 51.705 34.7908 51.2601C34.3459 50.8152 33.6246 50.8152 33.1797 51.2601L34.7908 52.8712ZM24.6944 47.0174C24.2496 47.4623 24.2496 48.1836 24.6944 48.6285C25.1393 49.0734 25.8607 49.0734 26.3056 48.6285L24.6944 47.0174ZM28.4269 46.5072C28.8718 46.0623 28.8718 45.341 28.4269 44.8961C27.982 44.4512 27.2607 44.4512 26.8158 44.8961L28.4269 46.5072ZM52.4796 32.6167L49.8477 46.3403L52.0853 46.7695L54.7173 33.0459L52.4796 32.6167ZM33.3466 29.8393L47.0701 27.2073L46.641 24.9696L32.9174 27.6016L33.3466 29.8393ZM28.9853 33.9464C29.5262 31.8526 31.2297 30.2452 33.3466 29.8393L32.9174 27.6016C29.9287 28.1748 27.5386 30.437 26.7793 33.3766L28.9853 33.9464ZM35.9076 40.7049C31.7897 41.9158 27.9042 38.1316 28.9853 33.9464L26.7793 33.3766C25.2632 39.2454 30.706 44.6095 36.5504 42.8908L35.9076 40.7049ZM38.982 43.7793C39.535 41.8989 37.7879 40.1519 35.9076 40.7049L36.5504 42.8908C36.7007 42.8466 36.8403 42.9862 36.7961 43.1365L38.982 43.7793ZM45.7405 50.7016C41.5553 51.7828 37.7711 47.8972 38.982 43.7793L36.7961 43.1365C35.0774 48.9809 40.4414 54.4238 46.3104 52.9077L45.7405 50.7016ZM49.8477 46.3403C49.4417 48.4572 47.8344 50.1607 45.7405 50.7016L46.3104 52.9077C49.2499 52.1483 51.5122 49.7582 52.0853 46.7695L49.8477 46.3403ZM54.7173 33.0459C55.6359 28.2561 51.4307 24.051 46.641 24.9696L47.0701 27.2073C50.2783 26.592 53.0949 29.4086 52.4796 32.6167L54.7173 33.0459ZM31.6089 49.6892L33.7302 47.5679L32.1191 45.9568L29.9977 48.0781L31.6089 49.6892ZM32.6695 54.9925L34.7908 52.8712L33.1797 51.2601L31.0584 53.3814L32.6695 54.9925ZM26.3056 48.6285L28.4269 46.5072L26.8158 44.8961L24.6944 47.0174L26.3056 48.6285Z" fill="#060D04"/>
</svg>
